<svg xmlns="http://www.w3.org/2000/svg" viewBox="0 0 1600 900">
  <rect width="1600" height="900" fill="#0f172a"/>
  <rect width="1600" height="900" fill="url(#g2)"/>
  <path d="M0 600c180-100 300-120 460-100 170 21 260 100 450 100 180 0 290-80 440-90 120-10 220 20 250 40v300H0z" fill="#dbeafe" opacity="0.65"/>
  <path d="M140 260c90-60 180-80 280-60 120 25 220 100 390 90 140-8 240-80 360-80 110 0 190 30 230 70" stroke="#ffffff" stroke-width="10" fill="none" stroke-linecap="round" opacity="0.85"/>
  <circle cx="340" cy="220" r="82" fill="#f8fafc" opacity="0.8"/>
  <defs>
    <linearGradient id="g2" x1="0%" y1="0%" x2="100%" y2="100%">
      <stop offset="0%" stop-color="#0c4a6e"/>
      <stop offset="50%" stop-color="#38bdf8"/>
      <stop offset="100%" stop-color="#f0f7ff"/>
    </linearGradient>
  </defs>
</svg>